<svg width="24" height="18" viewBox="0 0 24 18" fill="none" xmlns="http://www.w3.org/2000/svg">
<path d="M0 18V14.85C0 14.2125 0.159091 13.6266 0.477273 13.0922C0.795455 12.5578 1.21818 12.15 1.74545 11.8688C2.87273 11.2875 4.01818 10.8516 5.18182 10.5609C6.34545 10.2703 7.52727 10.125 8.72727 10.125C9.92727 10.125 11.1091 10.2703 12.2727 10.5609C13.4364 10.8516 14.5818 11.2875 15.7091 11.8688C16.2364 12.15 16.6591 12.5578 16.9773 13.0922C17.2955 13.6266 17.4545 14.2125 17.4545 14.85V18H0ZM19.6364 18V14.625C19.6364 13.8 19.4136 13.0078 18.9682 12.2484C18.5227 11.4891 17.8909 10.8375 17.0727 10.2937C18 10.4062 18.8727 10.5984 19.6909 10.8703C20.5091 11.1422 21.2727 11.475 21.9818 11.8688C22.6364 12.2438 23.1364 12.6609 23.4818 13.1203C23.8273 13.5797 24 14.0813 24 14.625V18H19.6364ZM8.72727 9C7.52727 9 6.5 8.55937 5.64545 7.67812C4.79091 6.79687 4.36364 5.7375 4.36364 4.5C4.36364 3.2625 4.79091 2.20312 5.64545 1.32187C6.5 0.440625 7.52727 0 8.72727 0C9.92727 0 10.9545 0.440625 11.8091 1.32187C12.6636 2.20312 13.0909 3.2625 13.0909 4.5C13.0909 5.7375 12.6636 6.79687 11.8091 7.67812C10.9545 8.55937 9.92727 9 8.72727 9ZM19.6364 4.5C19.6364 5.7375 19.2091 6.79687 18.3545 7.67812C17.5 8.55937 16.4727 9 15.2727 9C15.0727 9 14.8182 8.97656 14.5091 8.92969C14.2 8.88281 13.9455 8.83125 13.7455 8.775C14.2364 8.175 14.6136 7.50938 14.8773 6.77813C15.1409 6.04688 15.2727 5.2875 15.2727 4.5C15.2727 3.7125 15.1409 2.95312 14.8773 2.22188C14.6136 1.49063 14.2364 0.825 13.7455 0.225C14 0.13125 14.2545 0.0703125 14.5091 0.0421875C14.7636 0.0140625 15.0182 0 15.2727 0C16.4727 0 17.5 0.440625 18.3545 1.32187C19.2091 2.20312 19.6364 3.2625 19.6364 4.5ZM2.18182 15.75H15.2727V14.85C15.2727 14.6437 15.2227 14.4562 15.1227 14.2875C15.0227 14.1187 14.8909 13.9875 14.7273 13.8938C13.7455 13.3875 12.7545 13.0078 11.7545 12.7547C10.7545 12.5016 9.74545 12.375 8.72727 12.375C7.70909 12.375 6.7 12.5016 5.7 12.7547C4.7 13.0078 3.70909 13.3875 2.72727 13.8938C2.56364 13.9875 2.43182 14.1187 2.33182 14.2875C2.23182 14.4562 2.18182 14.6437 2.18182 14.85V15.75ZM8.72727 6.75C9.32727 6.75 9.84091 6.52969 10.2682 6.08906C10.6955 5.64844 10.9091 5.11875 10.9091 4.5C10.9091 3.88125 10.6955 3.35156 10.2682 2.91094C9.84091 2.47031 9.32727 2.25 8.72727 2.25C8.12727 2.25 7.61364 2.47031 7.18636 2.91094C6.75909 3.35156 6.54545 3.88125 6.54545 4.5C6.54545 5.11875 6.75909 5.64844 7.18636 6.08906C7.61364 6.52969 8.12727 6.75 8.72727 6.75Z" fill="currentColor"/>
</svg>
