<svg width="20" height="18" viewBox="0 0 20 18" fill="none" xmlns="http://www.w3.org/2000/svg">
<path d="M3 18C2.16667 18 1.45833 17.7083 0.875 17.125C0.291667 16.5417 0 15.8333 0 15C0 14.1667 0.291667 13.4583 0.875 12.875C1.45833 12.2917 2.16667 12 3 12H17C17.8333 12 18.5417 12.2917 19.125 12.875C19.7083 13.4583 20 14.1667 20 15C20 15.8333 19.7083 16.5417 19.125 17.125C18.5417 17.7083 17.8333 18 17 18H3ZM3 16H17C17.2833 16 17.5208 15.9042 17.7125 15.7125C17.9042 15.5208 18 15.2833 18 15C18 14.7167 17.9042 14.4792 17.7125 14.2875C17.5208 14.0958 17.2833 14 17 14H3C2.71667 14 2.47917 14.0958 2.2875 14.2875C2.09583 14.4792 2 14.7167 2 15C2 15.2833 2.09583 15.5208 2.2875 15.7125C2.47917 15.9042 2.71667 16 3 16ZM8 10C7.71667 10 7.47917 9.90417 7.2875 9.7125C7.09583 9.52083 7 9.28333 7 9V1C7 0.716667 7.09583 0.479167 7.2875 0.2875C7.47917 0.0958333 7.71667 0 8 0H16C16.2833 0 16.5208 0.0958333 16.7125 0.2875C16.9042 0.479167 17 0.716667 17 1V9C17 9.28333 16.9042 9.52083 16.7125 9.7125C16.5208 9.90417 16.2833 10 16 10H8ZM9 8H15V2H9V8ZM0 7.95V6.025H4.925V7.95H0ZM10 5H14V3.025H10V5ZM2 5H4.925V3.025H2V5Z" fill="currentColor"/>
</svg>
